<?xml version="1.0" encoding="UTF-8" standalone="no"?>
<svg
   width="2500"
   height="2500"
   viewBox="0 0 256 255.92055"
   preserveAspectRatio="xMinYMin"
   version="1.1"
   id="svg24"
   sodipodi:docname="php-1.svg"
   inkscape:version="1.2.2 (b0a8486541, 2022-12-01, custom)"
   xmlns:inkscape="http://www.inkscape.org/namespaces/inkscape"
   xmlns:sodipodi="http://sodipodi.sourceforge.net/DTD/sodipodi-0.dtd"
   xmlns="http://www.w3.org/2000/svg"
   xmlns:svg="http://www.w3.org/2000/svg">
  <defs
     id="defs28" />
  <sodipodi:namedview
     id="namedview26"
     pagecolor="#505050"
     bordercolor="#eeeeee"
     borderopacity="1"
     inkscape:showpageshadow="0"
     inkscape:pageopacity="0"
     inkscape:pagecheckerboard="0"
     inkscape:deskcolor="#505050"
     showgrid="false"
     showguides="true"
     inkscape:zoom="0.1802903"
     inkscape:cx="1250.7606"
     inkscape:cy="1200.8411"
     inkscape:window-width="1366"
     inkscape:window-height="704"
     inkscape:window-x="0"
     inkscape:window-y="0"
     inkscape:window-maximized="1"
     inkscape:current-layer="svg24">
    <sodipodi:guide
       position="-37.892222,107.31753"
       orientation="0,-1"
       id="guide311"
       inkscape:locked="false" />
  </sodipodi:namedview>
  <g
     fill-rule="evenodd"
     id="g22"
     transform="translate(0,61.370003)">
    <ellipse
       fill="#8993be"
       cx="128"
       cy="66.629997"
       rx="128"
       ry="66.629997"
       id="ellipse18" />
    <path
       d="M 35.945,106.082 49.973,35.068 H 82.41 c 14.027,0.877 21.041,7.89 21.041,20.165 0,21.041 -16.657,33.315 -31.562,32.438 H 56.11 l -3.507,18.411 z M 59.616,74.521 64,48.219 h 11.397 c 6.137,0 10.52,2.63 10.52,7.89 -0.876,14.905 -7.89,17.535 -15.78,18.412 h -10.52 z m 40.576,13.15 14.027,-71.013 h 16.658 l -3.507,18.41 h 15.78 c 14.028,0.877 19.288,7.89 17.535,16.658 l -6.137,35.945 h -17.534 l 6.137,-32.438 c 0.876,-4.384 0.876,-7.014 -5.26,-7.014 H 124.74 l -7.89,39.452 z m 53.233,18.411 14.027,-71.014 h 32.438 c 14.028,0.877 21.042,7.89 21.042,20.165 0,21.041 -16.658,33.315 -31.562,32.438 h -15.781 l -3.507,18.411 z m 23.67,-31.561 4.384,-26.302 h 11.398 c 6.137,0 10.52,2.63 10.52,7.89 -0.876,14.905 -7.89,17.535 -15.78,18.412 h -10.521 z"
       fill="#232531"
       id="path20" />
  </g>
</svg>
